<svg xmlns="http://www.w3.org/2000/svg" xmlns:xlink="http://www.w3.org/1999/xlink" viewBox="0 0 474.13 814.5"><defs><style>.cls-1{fill:url(#linear-gradient);}</style><linearGradient id="linear-gradient" x1="-290.56" y1="1368.53" x2="-290.56" y2="1367.53" gradientTransform="matrix(460.12, 0, 0, -814.5, 133931.4, 1114666.44)" gradientUnits="userSpaceOnUse"><stop offset="0" stop-color="#e5eef7"/><stop offset="0" stop-color="#5498d3"/><stop offset="0.69" stop-color="#492881"/><stop offset="0.81" stop-color="#3f2f74"/><stop offset="1" stop-color="#251a31"/></linearGradient></defs><g id="Layer_2" data-name="Layer 2"><g id="Layer_1-2" data-name="Layer 1"><path id="Path_1" data-name="Path 1" class="cls-1" d="M200.1,813.61c30.85-4.72,155.7-103.1,191.7-157.1,118.71-177.41,104-432-11.69-539.26a56.7,56.7,0,0,1-5-3.9C357.54,98.18,319.34,52.08,319.12,0,273.06.68,3.36,0,3.36,0s-7.56,72.19,0,160.26c8.56,97.68,130.92,179.51,184.06,251.3,49,63.57,31.82,212.49,6.74,255.23C141.4,752.16,52,811.62,39.05,813.61S200.1,813.61,200.1,813.61Z"/></g></g></svg>